<?xml version="1.0" encoding="UTF-8" standalone="no"?>
<svg
   xmlns:dc="http://purl.org/dc/elements/1.1/"
   xmlns:cc="http://creativecommons.org/ns#"
   xmlns:rdf="http://www.w3.org/1999/02/22-rdf-syntax-ns#"
   xmlns:svg="http://www.w3.org/2000/svg"
   xmlns="http://www.w3.org/2000/svg"
   xmlns:sodipodi="http://sodipodi.sourceforge.net/DTD/sodipodi-0.dtd"
   xmlns:inkscape="http://www.inkscape.org/namespaces/inkscape"
   width="334.15405mm"
   height="255.72038mm"
   viewBox="0 0 334.15405 255.72038"
   version="1.1"
   id="svg856"
   inkscape:version="1.0.2-2 (e86c870879, 2021-01-15)"
   sodipodi:docname="tv-screen-mask.svg">
  <defs
     id="defs850" />
  <sodipodi:namedview
     id="base"
     pagecolor="#ffffff"
     bordercolor="#666666"
     borderopacity="1.0"
     inkscape:pageopacity="0.0"
     inkscape:pageshadow="2"
     inkscape:zoom="0.49497475"
     inkscape:cx="698.99698"
     inkscape:cy="634.8191"
     inkscape:document-units="mm"
     inkscape:current-layer="layer1"
     inkscape:document-rotation="0"
     showgrid="false"
     inkscape:window-width="1566"
     inkscape:window-height="1030"
     inkscape:window-x="32"
     inkscape:window-y="0"
     inkscape:window-maximized="0" />
  <metadata
     id="metadata853">
    <rdf:RDF>
      <cc:Work
         rdf:about="">
        <dc:format>image/svg+xml</dc:format>
        <dc:type
           rdf:resource="http://purl.org/dc/dcmitype/StillImage" />
        <dc:title></dc:title>
      </cc:Work>
    </rdf:RDF>
  </metadata>
  <g
     inkscape:label="Layer 1"
     inkscape:groupmode="layer"
     id="layer1"
     transform="translate(-169.32178,108.20543)">
    <path
       id="rect847"
       style="display:inline;fill:#000000;fill-opacity:0.782857;stroke-width:0.628834;stroke-linecap:round;stroke-linejoin:round;paint-order:markers fill stroke;stop-color:#000000"
       d="m 233.59236,-101.85153 c 14.34745,-2.92838 49.9804,-6.44926 102.26256,-6.35193 42.51534,0.0792 57.74709,0.46571 98.19269,3.26244 12.35238,0.85415 34.63837,6.662838 46.55133,21.928247 10.90885,13.978757 14.62469,30.070584 17.54943,43.735682 1.44337,6.743813 6.03017,33.9329149 5.23574,61.274004 -0.98469,33.889015 -8.01192,69.093894 -13.21963,78.692727 -8.81169,16.24167 -15.07067,23.6868 -34.08416,32.63268 -15.48558,7.28598 -41.81173,9.09761 -55.61533,11.20647 -12.99195,1.98487 -37.22831,3.38031 -81.58142,2.8861 -46.01165,-0.51267 -86.50947,-8.74763 -90.99452,-9.74339 -12.65507,-2.80968 -18.98318,-5.06209 -26.71488,-11.52563 -12.55631,-10.49681 -15.64961,-17.03743 -20.52329,-31.243478 -5.12378,-14.935057 -11.62301,-50.197397 -11.31881,-82.82076 0.32378,-34.72356 4.47373,-43.485133 6.05696,-53.869928 1.45913,-9.570752 5.80437,-29.344245 20.5175,-43.644335 11.44414,-11.122879 24.50654,-13.728951 37.68583,-16.418899 z"
       sodipodi:nodetypes="sssssssssssssssss" />
  </g>
</svg>
