<?xml version="1.0" encoding="UTF-8" standalone="no"?>
<svg
   xmlns:dc="http://purl.org/dc/elements/1.1/"
   xmlns:cc="http://creativecommons.org/ns#"
   xmlns:rdf="http://www.w3.org/1999/02/22-rdf-syntax-ns#"
   xmlns:svg="http://www.w3.org/2000/svg"
   xmlns="http://www.w3.org/2000/svg"
   xmlns:sodipodi="http://sodipodi.sourceforge.net/DTD/sodipodi-0.dtd"
   xmlns:inkscape="http://www.inkscape.org/namespaces/inkscape"
   width="400.00003mm"
   height="595.47534mm"
   viewBox="0 0 400.00003 595.47534"
   version="1.1"
   id="svg877"
   inkscape:version="1.0.2-2 (e86c870879, 2021-01-15)"
   sodipodi:docname="tv-1.svg">
  <defs
     id="defs871" />
  <sodipodi:namedview
     id="base"
     pagecolor="#ffffff"
     bordercolor="#666666"
     borderopacity="1.0"
     inkscape:pageopacity="0.0"
     inkscape:pageshadow="2"
     inkscape:zoom="0.175"
     inkscape:cx="1107.6941"
     inkscape:cy="1786.4859"
     inkscape:document-units="mm"
     inkscape:current-layer="layer1"
     inkscape:document-rotation="0"
     showgrid="false"
     inkscape:window-width="1920"
     inkscape:window-height="1001"
     inkscape:window-x="258"
     inkscape:window-y="1431"
     inkscape:window-maximized="1" />
  <metadata
     id="metadata874">
    <rdf:RDF>
      <cc:Work
         rdf:about="">
        <dc:format>image/svg+xml</dc:format>
        <dc:type
           rdf:resource="http://purl.org/dc/dcmitype/StillImage" />
        <dc:title></dc:title>
      </cc:Work>
    </rdf:RDF>
  </metadata>
  <g
     inkscape:label="Layer 1"
     inkscape:groupmode="layer"
     id="layer1"
     transform="translate(58.197023,168.54357)">
    <g
       id="g1486"
       transform="matrix(1.1864784,0,0,1.1864784,-274.36844,202.74165)">
      <path
         id="rect875"
         style="display:inline;fill:#000000;fill-opacity:0.837143;stroke-width:0.53;stroke-linecap:round;stroke-linejoin:round;paint-order:markers fill stroke;stop-color:#000000"
         d="m 191.3385,-84.479 c 1.48918,-0.154614 59.84253,-3.303963 156.29717,-3.207234 80.10661,0.08033 150.06154,0.264576 155.42042,0.380393 6.94877,0.150179 8.28338,-0.267902 10.49844,1.08959 2.11048,1.293397 3.60954,2.870357 3.66364,7.405415 l 1.31627,110.325626 c 0,0 1.53672,125.21708 0.33318,140.57119 -0.44488,5.67572 -1.78308,7.04091 -1.78308,7.04091 -0.68002,2.68522 -4.77291,4.72113 -8.35453,5.12969 -1.0883,0.12414 -4.05429,0.6823 -7.17043,0.91373 -12.82563,0.95252 -35.29286,4.03607 -145.10402,3.76742 -138.15048,-0.33798 -149.6531,-1.79669 -160.03665,-2.34053 -4.48625,-0.23497 -4.69959,-0.70724 -6.3804,-2.20305 -2.0467,-1.82143 -2.94631,-4.66458 -3.56636,-7.40542 -3.68169,-16.2742 -4.27632,-88.25103 -4.27632,-131.0402 0,-34.98588 1.56589,-115.709623 2.08836,-119.2047 0.58651,-3.923493 -0.12251,-7.136145 2.05432,-9.563708 1.17234,-1.307377 2.80579,-1.431308 4.99999,-1.659122 z"
         sodipodi:nodetypes="ssssscssssssasssas" />
      <path
         id="rect878"
         style="display:inline;fill:#000000;fill-opacity:1;stroke-width:0.53;stroke-linecap:round;stroke-linejoin:round;paint-order:markers fill stroke;stop-color:#000000"
         d="m 205.40799,-108.60876 c 0,0 82.44331,-2.14959 132.26392,-2.46844 43.69066,-0.27962 147.70294,1.05103 147.70294,1.05103 l 27.78125,23.579008 c 0,0 -86.36807,-0.239444 -182.85634,-0.04094 -107.81204,0.221797 -143.5071,2.875762 -143.5071,2.875762 z"
         sodipodi:nodetypes="csccscc" />
      <path
         id="rect893"
         style="display:inline;fill:#000000;fill-opacity:0.497143;stroke-width:0.559665;stroke-linecap:round;stroke-linejoin:round;paint-order:markers fill stroke;stop-color:#000000"
         inkscape:transform-center-x="-41.668052"
         inkscape:transform-center-y="-82.723953"
         d="m 409.71847,-312.93045 c 0,0 2.21522,0.35318 3.07616,0.84874 0.5142,0.29599 1.93467,1.25064 1.93467,1.25064 l -4.0499,6.57282 -79.74227,159.02936 -4.1422,-2.03257 80.89363,-158.45647 z"
         sodipodi:nodetypes="cscccccc" />
      <path
         id="rect893-3"
         style="display:inline;fill:#000000;fill-opacity:0.497143;stroke-width:0.559665;stroke-linecap:round;stroke-linejoin:round;paint-order:markers fill stroke;stop-color:#000000"
         inkscape:transform-center-x="53.542952"
         inkscape:transform-center-y="-75.710742"
         d="m 190.87228,-296.47432 c 0,0 1.35514,-1.78759 2.19785,-2.31354 0.50333,-0.31412 2.01461,-1.11733 2.01461,-1.11733 l 3.88976,6.66884 102.70815,145.25909 -3.74431,2.69616 -101.66041,-146.00478 z"
         sodipodi:nodetypes="cscccccc" />
      <path
         style="fill:#000000;stroke:none;stroke-width:0.264583px;stroke-linecap:butt;stroke-linejoin:miter;stroke-opacity:1"
         d="m 300.1577,-232.79611 c 0,0 -3.96875,-3.87425 -4.8192,-7.65401 -0.85044,-3.77976 -1.32291,-5.10268 -0.94494,-8.31548 0.37798,-3.2128 2.74033,-6.80357 5.10268,-7.65402 2.36235,-0.85044 4.15774,-1.5119 6.99256,-1.03943 2.83482,0.47247 7.27604,3.49628 8.12649,5.10268 0.85044,1.6064 2.26786,3.40178 2.74033,6.70907 0.47247,3.3073 -2.74033,9.16593 -2.74033,9.16593 l -7.37054,11.52827 c 0,0 -0.75595,1.32292 -0.66145,2.83482 0.0945,1.51191 5.66964,8.31548 5.66964,8.31548 0,0 4.63021,5.29167 4.63021,6.89806 0,1.6064 -1.7009,4.72471 -1.7009,4.72471 0,0 -3.1183,3.1183 -4.53571,4.81919 -1.41741,1.70089 -4.53571,3.59078 -3.2128,5.95313 1.32292,2.36235 7.9375,9.16592 7.9375,9.16592 0,0 3.30729,2.55134 3.40179,4.91369 0.0945,2.36235 -2.45685,5.76414 -2.45685,5.76414 0,0 -4.44122,5.10268 -5.38616,7.37053 -0.94494,2.26786 -0.85044,10.86682 -0.85044,10.86682 l 0.85044,3.2128 c 0,0 -3.1183,0.66145 -3.1183,1.41741 0,0.75595 -0.47247,-5.10268 -0.47247,-5.10268 0,0 -0.28348,-6.3311 0.28348,-8.40997 0.56696,-2.07887 3.49628,-7.65402 5.66964,-10.58334 2.17336,-2.92931 3.11831,-4.06324 2.64584,-4.7247 -0.47248,-0.66146 -5.10268,-5.57515 -5.95313,-6.52009 -0.85045,-0.94494 -4.44122,-4.81919 -4.8192,-6.3311 -0.37797,-1.5119 -1.70089,-3.59077 0.94495,-5.95312 2.64583,-2.36235 7.08705,-6.70908 7.27604,-8.97694 0.18898,-2.26786 1.6064,0 -0.66146,-3.02381 -2.26786,-3.02381 -6.99256,-8.69345 -7.74851,-11.52827 -0.75596,-2.83482 -1.79539,-3.96875 -0.18899,-7.18155 1.6064,-3.2128 7.18155,-11.33928 7.18155,-11.33928 0,0 3.59077,-3.68527 2.17336,-7.55953 -1.41741,-3.87425 -2.92932,-6.14211 -5.85863,-7.18154 -2.92932,-1.03944 -6.52009,-1.22843 -8.22098,0.85044 -1.7009,2.07887 -2.83483,3.96875 -2.55134,6.3311 0.28348,2.36236 1.13393,5.95313 4.44122,10.39435 3.30729,4.44122 8.22098,11.71726 8.22098,11.71726 0,0 0.85045,1.32292 0,3.68527 -0.85045,2.36235 -3.68527,5.57515 -5.48065,7.65402 -1.79539,2.07886 -2.74033,3.30729 -1.6064,5.85863 1.13392,2.55134 6.42559,7.46503 6.42559,7.46503 0,0 3.77976,4.15773 2.92932,7.18154 -0.85045,3.02381 -4.7247,8.59896 -4.7247,8.59896 0,0 -3.02381,4.63021 -2.55134,5.76414 0.47246,1.13393 4.53571,6.42559 4.53571,6.42559 0,0 4.53571,5.19718 5.38616,8.22099 0.85045,3.0238 1.6064,8.31547 1.13393,10.67782 -0.47247,2.36235 -0.18899,2.55134 -0.18899,2.55134 l -2.07887,-0.18899 c 0,0 0.85045,-0.0945 -0.0945,-5.00818 -0.94494,-4.91369 -2.55134,-8.88244 -2.55134,-8.88244 0,0 -1.41741,-2.83482 -4.15773,-5.57515 -2.74033,-2.74033 -4.8192,-5.57515 -5.10268,-8.22098 -0.28348,-2.64583 2.07887,-6.99256 2.07887,-6.99256 0,0 4.25223,-4.8192 4.44122,-6.52009 0.18899,-1.70089 0.37797,-2.55134 -0.18899,-3.87426 -0.56697,-1.32291 -6.80357,-6.89806 -7.46503,-8.88244 -0.66146,-1.98437 -2.45685,-3.30729 -1.79539,-5.19717 0.66146,-1.88988 5.10268,-7.46503 5.10268,-7.46503 0,0 3.2128,-2.83482 3.1183,-5.66964 -0.0945,-2.83482 -6.3311,-9.44941 -6.3311,-9.44941 z"
         id="path843" />
      <path
         id="path884"
         style="display:inline;fill:#000000;fill-opacity:1;stroke-width:0.566806;stroke-linecap:round;stroke-linejoin:round;paint-order:markers fill stroke;stop-color:#000000"
         d="m 335.60854,-131.51843 c 0,6.66859 0.014,11.51299 -5.21794,12.81679 -6.11966,1.52501 -11.86724,1.48213 -16.56453,1.48213 -5.37282,0 -11.48165,-0.19776 -17.69346,-1.65796 -4.64057,-1.09086 -2.61903,-6.64789 -2.61903,-12.64096 0,-11.36589 9.21387,-20.57976 20.57976,-20.57976 11.36588,0 21.5152,9.21387 21.5152,20.57976 z"
         sodipodi:nodetypes="sssssss" />
      <path
         id="rect887"
         style="display:inline;fill:#000000;fill-opacity:1;stroke-width:0.53;stroke-linecap:round;stroke-linejoin:round;paint-order:markers fill stroke;stop-color:#000000"
         d="m 291.50906,-119.75858 c 14.57481,2.38917 29.52681,3.70208 45.16855,-0.53454 0,0 4.93042,7.19673 5.34539,11.22532 0.31178,3.02677 -2.80633,8.68626 -2.80633,8.68626 -15.08586,0.2287 -31.51284,0.486428 -48.37578,0 0,0 -2.16319,-5.06071 -2.27179,-7.75081 -0.15047,-3.72732 2.93996,-11.62623 2.93996,-11.62623 z"
         sodipodi:nodetypes="ccsccsc" />
      <path
         id="rect847"
         style="display:inline;fill:#8a0000;fill-opacity:0.782857;stroke-width:0.53;stroke-linecap:round;stroke-linejoin:round;paint-order:markers fill stroke;stop-color:#000000"
         d="m 264.12551,-54.82271 c 12.09247,-2.468128 42.125,-5.435626 86.18999,-5.353594 35.83322,0.06671 48.671,0.392509 82.75978,2.749683 10.41096,0.719898 29.19427,5.615641 39.23487,18.481791 9.19431,11.78172 12.32614,25.3444 14.7912,36.86176 1.21651,5.68389 5.08241,28.59969 4.41284,51.64359 -0.82993,28.56269 -6.75269,58.23443 -11.14191,66.32462 -7.42676,13.68897 -12.70202,19.96395 -28.72716,27.50381 -13.05172,6.14085 -35.2402,7.66774 -46.87429,9.44515 -10.95001,1.67291 -31.37715,2.84903 -68.7593,2.4325 -38.78001,-0.4321 -72.9128,-7.37277 -76.69294,-8.21203 -10.66608,-2.36808 -15.9996,-4.26648 -22.51611,-9.71415 -10.58284,-8.84703 -13.18997,-14.35966 -17.29765,-26.33295 -4.31848,-12.58772 -9.79623,-42.30789 -9.53984,-69.80385 0.27289,-29.26607 3.7706,-36.65059 5.10499,-45.40321 1.2298,-8.06652 4.8921,-24.73222 17.29277,-36.78477 9.64547,-9.3747 20.65486,-11.571177 31.76276,-13.83835 z"
         sodipodi:nodetypes="sssssssssssssssss" />
    </g>
  </g>
</svg>
